<?xml version="1.0" encoding="UTF-8"?>
<svg id="_レイヤー_1" data-name="レイヤー 1" xmlns="http://www.w3.org/2000/svg" xmlns:xlink="http://www.w3.org/1999/xlink" viewBox="0 0 500 500">
  <defs>
    <pattern id="_新規パターン_5" data-name="新規パターン 5" x="0" y="0" width="129.9" height="226.5" patternTransform="translate(-801 -258)" patternUnits="userSpaceOnUse" viewBox="0 0 129.9 226.5">
      <g>
        <rect width="129.9" height="226.5" fill="none" stroke-width="0"/>
        <g>
          <polygon points="64.95 189 64.95 264 129.9 301.5 194.86 264 194.86 189 129.9 151.5 64.95 189" fill="none" fill-rule="evenodd" stroke="#aa559d" stroke-linejoin="round"/>
          <polyline points="129.9 301.5 129.9 151.5 151.55 189 129.9 226.5" fill="#fac324" stroke="#aa559d" stroke-linejoin="round"/>
          <polyline points="129.9 301.5 129.9 151.5 108.25 189 129.9 226.5" fill="#fac324" stroke="#aa559d" stroke-linejoin="round"/>
          <polyline points="194.86 264 64.95 189 108.25 189 129.9 226.5" fill="#fac324" stroke="#aa559d" stroke-linejoin="round"/>
          <polyline points="194.86 264 64.95 189 86.6 226.5 129.9 226.5" fill="#fac324" stroke="#aa559d" stroke-linejoin="round"/>
          <polyline points="194.86 189 64.95 264 86.6 226.5 129.9 226.5" fill="#fac324" stroke="#aa559d" stroke-linejoin="round"/>
          <polyline points="194.86 189 64.95 264 108.25 264 129.9 226.5" fill="#fac324" stroke="#aa559d" stroke-linejoin="round"/>
          <polyline points="129.9 151.5 129.9 301.5 108.25 264 129.9 226.5" fill="#fac324" stroke="#aa559d" stroke-linejoin="round"/>
          <polyline points="129.9 151.5 129.9 301.5 151.55 264 129.9 226.5" fill="#fac324" stroke="#aa559d" stroke-linejoin="round"/>
          <polyline points="64.95 189 194.86 264 151.55 264 129.9 226.5" fill="#fac324" stroke="#aa559d" stroke-linejoin="round"/>
          <polyline points="64.95 189 194.86 264 173.21 226.5 129.9 226.5" fill="#fac324" stroke="#aa559d" stroke-linejoin="round"/>
          <polyline points="64.95 264 194.86 189 173.21 226.5 129.9 226.5" fill="#fac324" stroke="#aa559d" stroke-linejoin="round"/>
          <polyline points="64.95 264 194.86 189 151.55 189 129.9 226.5" fill="#fac324" stroke="#aa559d" stroke-linejoin="round"/>
          <line x1="194.86" y1="264" x2="64.95" y2="189" fill="#fac324" stroke="#aa559d" stroke-linejoin="round"/>
          <line x1="194.86" y1="189" x2="64.95" y2="264" fill="none" stroke="#aa559d" stroke-linejoin="round"/>
        </g>
        <g>
          <polygon points="-64.95 189 -64.95 264 0 301.5 64.95 264 64.95 189 0 151.5 -64.95 189" fill="none" fill-rule="evenodd" stroke="#aa559d" stroke-linejoin="round"/>
          <polyline points="0 301.5 0 151.5 21.65 189 0 226.5" fill="#fac324" stroke="#aa559d" stroke-linejoin="round"/>
          <polyline points="0 301.5 0 151.5 -21.65 189 0 226.5" fill="#fac324" stroke="#aa559d" stroke-linejoin="round"/>
          <polyline points="64.95 264 -64.95 189 -21.65 189 0 226.5" fill="#fac324" stroke="#aa559d" stroke-linejoin="round"/>
          <polyline points="64.95 264 -64.95 189 -43.3 226.5 0 226.5" fill="#fac324" stroke="#aa559d" stroke-linejoin="round"/>
          <polyline points="64.95 189 -64.95 264 -43.3 226.5 0 226.5" fill="#fac324" stroke="#aa559d" stroke-linejoin="round"/>
          <polyline points="64.95 189 -64.95 264 -21.65 264 0 226.5" fill="#fac324" stroke="#aa559d" stroke-linejoin="round"/>
          <polyline points="0 151.5 0 301.5 -21.65 264 0 226.5" fill="#fac324" stroke="#aa559d" stroke-linejoin="round"/>
          <polyline points="0 151.5 0 301.5 21.65 264 0 226.5" fill="#fac324" stroke="#aa559d" stroke-linejoin="round"/>
          <polyline points="-64.95 189 64.95 264 21.65 264 0 226.5" fill="#fac324" stroke="#aa559d" stroke-linejoin="round"/>
          <polyline points="-64.95 189 64.95 264 43.3 226.5 0 226.5" fill="#fac324" stroke="#aa559d" stroke-linejoin="round"/>
          <polyline points="-64.95 264 64.95 189 43.3 226.5 0 226.5" fill="#fac324" stroke="#aa559d" stroke-linejoin="round"/>
          <polyline points="-64.95 264 64.95 189 21.65 189 0 226.5" fill="#fac324" stroke="#aa559d" stroke-linejoin="round"/>
          <line x1="64.95" y1="264" x2="-64.95" y2="189" fill="#fac324" stroke="#aa559d" stroke-linejoin="round"/>
          <line x1="64.95" y1="189" x2="-64.95" y2="264" fill="none" stroke="#aa559d" stroke-linejoin="round"/>
        </g>
        <g>
          <polygon points="129.9 75.75 129.9 150.75 194.86 188.25 259.81 150.75 259.81 75.75 194.86 38.25 129.9 75.75" fill="none" fill-rule="evenodd" stroke="#aa559d" stroke-linejoin="round"/>
          <polyline points="259.81 150.75 129.9 75.75 173.21 75.75 194.86 113.25" fill="#fac324" stroke="#aa559d" stroke-linejoin="round"/>
          <polyline points="259.81 150.75 129.9 75.75 151.55 113.25 194.86 113.25" fill="#fac324" stroke="#aa559d" stroke-linejoin="round"/>
          <polyline points="259.81 75.75 129.9 150.75 151.55 113.25 194.86 113.25" fill="#fac324" stroke="#aa559d" stroke-linejoin="round"/>
          <polyline points="259.81 75.75 129.9 150.75 173.21 150.75 194.86 113.25" fill="#fac324" stroke="#aa559d" stroke-linejoin="round"/>
          <polyline points="129.9 75.75 259.81 150.75 216.51 150.75 194.86 113.25" fill="#fac324" stroke="#aa559d" stroke-linejoin="round"/>
          <polyline points="129.9 75.75 259.81 150.75 238.16 113.25 194.86 113.25" fill="#fac324" stroke="#aa559d" stroke-linejoin="round"/>
          <polyline points="129.9 150.75 259.81 75.75 238.16 113.25 194.86 113.25" fill="#fac324" stroke="#aa559d" stroke-linejoin="round"/>
          <polyline points="129.9 150.75 259.81 75.75 216.51 75.75 194.86 113.25" fill="#fac324" stroke="#aa559d" stroke-linejoin="round"/>
          <line x1="259.81" y1="150.75" x2="129.9" y2="75.75" fill="#fac324" stroke="#aa559d" stroke-linejoin="round"/>
          <line x1="259.81" y1="75.75" x2="129.9" y2="150.75" fill="none" stroke="#aa559d" stroke-linejoin="round"/>
        </g>
        <g>
          <polygon points="0 75.75 0 150.75 64.95 188.25 129.9 150.75 129.9 75.75 64.95 38.25 0 75.75" fill="none" fill-rule="evenodd" stroke="#aa559d" stroke-linejoin="round"/>
          <polyline points="64.95 188.25 64.95 38.25 86.6 75.75 64.95 113.25" fill="#fac324" stroke="#aa559d" stroke-linejoin="round"/>
          <polyline points="64.95 188.25 64.95 38.25 43.3 75.75 64.95 113.25" fill="#fac324" stroke="#aa559d" stroke-linejoin="round"/>
          <polyline points="129.9 150.75 0 75.75 43.3 75.75 64.95 113.25" fill="#fac324" stroke="#aa559d" stroke-linejoin="round"/>
          <polyline points="129.9 150.75 0 75.75 21.65 113.25 64.95 113.25" fill="#fac324" stroke="#aa559d" stroke-linejoin="round"/>
          <polyline points="129.9 75.75 0 150.75 21.65 113.25 64.95 113.25" fill="#fac324" stroke="#aa559d" stroke-linejoin="round"/>
          <polyline points="129.9 75.75 0 150.75 43.3 150.75 64.95 113.25" fill="#fac324" stroke="#aa559d" stroke-linejoin="round"/>
          <polyline points="64.95 38.25 64.95 188.25 43.3 150.75 64.95 113.25" fill="#fac324" stroke="#aa559d" stroke-linejoin="round"/>
          <polyline points="64.95 38.25 64.95 188.25 86.6 150.75 64.95 113.25" fill="#fac324" stroke="#aa559d" stroke-linejoin="round"/>
          <polyline points="0 75.75 129.9 150.75 86.6 150.75 64.95 113.25" fill="#fac324" stroke="#aa559d" stroke-linejoin="round"/>
          <polyline points="0 75.75 129.9 150.75 108.25 113.25 64.95 113.25" fill="#fac324" stroke="#aa559d" stroke-linejoin="round"/>
          <polyline points="0 150.75 129.9 75.75 108.25 113.25 64.95 113.25" fill="#fac324" stroke="#aa559d" stroke-linejoin="round"/>
          <polyline points="0 150.75 129.9 75.75 86.6 75.75 64.95 113.25" fill="#fac324" stroke="#aa559d" stroke-linejoin="round"/>
          <line x1="129.9" y1="150.75" x2="0" y2="75.75" fill="#fac324" stroke="#aa559d" stroke-linejoin="round"/>
          <line x1="129.9" y1="75.75" x2="0" y2="150.75" fill="none" stroke="#aa559d" stroke-linejoin="round"/>
        </g>
        <g>
          <polygon points="-129.9 75.75 -129.9 150.75 -64.95 188.25 0 150.75 0 75.75 -64.95 38.25 -129.9 75.75" fill="none" fill-rule="evenodd" stroke="#aa559d" stroke-linejoin="round"/>
          <polyline points="0 150.75 -129.9 75.75 -86.6 75.75 -64.95 113.25" fill="#fac324" stroke="#aa559d" stroke-linejoin="round"/>
          <polyline points="0 150.75 -129.9 75.75 -108.25 113.25 -64.95 113.25" fill="#fac324" stroke="#aa559d" stroke-linejoin="round"/>
          <polyline points="0 75.75 -129.9 150.75 -108.25 113.25 -64.95 113.25" fill="#fac324" stroke="#aa559d" stroke-linejoin="round"/>
          <polyline points="0 75.75 -129.9 150.75 -86.6 150.75 -64.95 113.25" fill="#fac324" stroke="#aa559d" stroke-linejoin="round"/>
          <polyline points="-129.9 75.75 0 150.75 -43.3 150.75 -64.95 113.25" fill="#fac324" stroke="#aa559d" stroke-linejoin="round"/>
          <polyline points="-129.9 75.75 0 150.75 -21.65 113.25 -64.95 113.25" fill="#fac324" stroke="#aa559d" stroke-linejoin="round"/>
          <polyline points="-129.9 150.75 0 75.75 -21.65 113.25 -64.95 113.25" fill="#fac324" stroke="#aa559d" stroke-linejoin="round"/>
          <polyline points="-129.9 150.75 0 75.75 -43.3 75.75 -64.95 113.25" fill="#fac324" stroke="#aa559d" stroke-linejoin="round"/>
          <line x1="0" y1="150.75" x2="-129.9" y2="75.75" fill="#fac324" stroke="#aa559d" stroke-linejoin="round"/>
          <line x1="0" y1="75.75" x2="-129.9" y2="150.75" fill="none" stroke="#aa559d" stroke-linejoin="round"/>
        </g>
        <g>
          <polygon points="64.95 -37.5 64.95 37.5 129.9 75 194.86 37.5 194.86 -37.5 129.9 -75 64.95 -37.5" fill="none" fill-rule="evenodd" stroke="#aa559d" stroke-linejoin="round"/>
          <polyline points="129.9 75 129.9 -75 151.55 -37.5 129.9 0" fill="#fac324" stroke="#aa559d" stroke-linejoin="round"/>
          <polyline points="129.9 75 129.9 -75 108.25 -37.5 129.9 0" fill="#fac324" stroke="#aa559d" stroke-linejoin="round"/>
          <polyline points="194.86 37.5 64.95 -37.5 108.25 -37.5 129.9 0" fill="#fac324" stroke="#aa559d" stroke-linejoin="round"/>
          <polyline points="194.86 37.5 64.95 -37.5 86.6 0 129.9 0" fill="#fac324" stroke="#aa559d" stroke-linejoin="round"/>
          <polyline points="194.86 -37.5 64.95 37.5 86.6 0 129.9 0" fill="#fac324" stroke="#aa559d" stroke-linejoin="round"/>
          <polyline points="194.86 -37.5 64.95 37.5 108.25 37.5 129.9 0" fill="#fac324" stroke="#aa559d" stroke-linejoin="round"/>
          <polyline points="129.9 -75 129.9 75 108.25 37.5 129.9 0" fill="#fac324" stroke="#aa559d" stroke-linejoin="round"/>
          <polyline points="129.9 -75 129.9 75 151.55 37.5 129.9 0" fill="#fac324" stroke="#aa559d" stroke-linejoin="round"/>
          <polyline points="64.95 -37.5 194.86 37.5 151.55 37.5 129.9 0" fill="#fac324" stroke="#aa559d" stroke-linejoin="round"/>
          <polyline points="64.95 -37.5 194.86 37.5 173.21 0 129.9 0" fill="#fac324" stroke="#aa559d" stroke-linejoin="round"/>
          <polyline points="64.95 37.5 194.86 -37.5 173.21 0 129.9 0" fill="#fac324" stroke="#aa559d" stroke-linejoin="round"/>
          <polyline points="64.95 37.5 194.86 -37.5 151.55 -37.5 129.9 0" fill="#fac324" stroke="#aa559d" stroke-linejoin="round"/>
          <line x1="194.86" y1="37.5" x2="64.95" y2="-37.5" fill="#fac324" stroke="#aa559d" stroke-linejoin="round"/>
          <line x1="194.86" y1="-37.5" x2="64.95" y2="37.5" fill="none" stroke="#aa559d" stroke-linejoin="round"/>
        </g>
        <g>
          <polygon points="-64.95 -37.5 -64.95 37.5 0 75 64.95 37.5 64.95 -37.5 0 -75 -64.95 -37.5" fill="none" fill-rule="evenodd" stroke="#aa559d" stroke-linejoin="round"/>
          <polyline points="0 75 0 -75 21.65 -37.5 0 0" fill="#fac324" stroke="#aa559d" stroke-linejoin="round"/>
          <polyline points="0 75 0 -75 -21.65 -37.5 0 0" fill="#fac324" stroke="#aa559d" stroke-linejoin="round"/>
          <polyline points="64.95 37.5 -64.95 -37.5 -21.65 -37.5 0 0" fill="#fac324" stroke="#aa559d" stroke-linejoin="round"/>
          <polyline points="64.95 37.5 -64.95 -37.5 -43.3 0 0 0" fill="#fac324" stroke="#aa559d" stroke-linejoin="round"/>
          <polyline points="64.95 -37.5 -64.95 37.5 -43.3 0 0 0" fill="#fac324" stroke="#aa559d" stroke-linejoin="round"/>
          <polyline points="64.95 -37.5 -64.95 37.5 -21.65 37.5 0 0" fill="#fac324" stroke="#aa559d" stroke-linejoin="round"/>
          <polyline points="0 -75 0 75 -21.65 37.5 0 0" fill="#fac324" stroke="#aa559d" stroke-linejoin="round"/>
          <polyline points="0 -75 0 75 21.65 37.5 0 0" fill="#fac324" stroke="#aa559d" stroke-linejoin="round"/>
          <polyline points="-64.95 -37.5 64.95 37.5 21.65 37.5 0 0" fill="#fac324" stroke="#aa559d" stroke-linejoin="round"/>
          <polyline points="-64.95 -37.5 64.95 37.5 43.3 0 0 0" fill="#fac324" stroke="#aa559d" stroke-linejoin="round"/>
          <polyline points="-64.95 37.5 64.95 -37.5 43.3 0 0 0" fill="#fac324" stroke="#aa559d" stroke-linejoin="round"/>
          <polyline points="-64.95 37.5 64.95 -37.5 21.65 -37.5 0 0" fill="#fac324" stroke="#aa559d" stroke-linejoin="round"/>
          <line x1="64.95" y1="37.5" x2="-64.95" y2="-37.5" fill="#fac324" stroke="#aa559d" stroke-linejoin="round"/>
          <line x1="64.95" y1="-37.5" x2="-64.95" y2="37.5" fill="none" stroke="#aa559d" stroke-linejoin="round"/>
        </g>
      </g>
    </pattern>
  </defs>
  <g>
    <rect x=".5" y=".5" width="499" height="499" fill="#f96a32" stroke-width="0"/>
    <path d="M499,1v498H1V1h498M500,0H0v500h500V0h0Z" stroke-width="0"/>
  </g>
  <g>
    <rect x=".5" y=".5" width="499" height="499" fill="url(#_新規パターン_5)" stroke-width="0"/>
    <path d="M499,1v498H1V1h498M500,0H0v500h500V0h0Z" stroke-width="0"/>
  </g>
</svg>